PathFileType	4	(X/Y/Z)	TVC_12_BWA1_walk_RCNL2025.trc
DataRate	CameraRate	NumFrames	NumMarkers	Units	OrigDataRate	OrigDataStartFrame	OrigNumFrames
100	100	7	27	mm	100	118	468
Frame#	Time	R_Shoulder			L_Shoulder			C7			J_Notch			R_Elbow			L_Elbow			R_Wrist			L_Wrist			R_Asis			L_Asis			R_Psis			L_Psis			Sacral			Thoracic			Sternum			R_Thigh_Lateral			R_Knee_Lateral			R_Shank_Lateral			R_Ankle_Lateral			R_Heel			R_Toe			L_Thigh_Lateral			L_Knee_Lateral			L_Shank_Lateral			L_Ankle_Lateral			L_Heel			L_Toe		
		X1	Y1	Z1	X2	Y2	Z2	X3	Y3	Z3	X4	Y4	Z4	X5	Y5	Z5	X6	Y6	Z6	X7	Y7	Z7	X8	Y8	Z8	X9	Y9	Z9	X10	Y10	Z10	X11	Y11	Z11	X12	Y12	Z12	X13	Y13	Z13	X14	Y14	Z14	X15	Y15	Z15	X16	Y16	Z16	X17	Y17	Z17	X18	Y18	Z18	X19	Y19	Z19	X20	Y20	Z20	X21	Y21	Z21	X22	Y22	Z22	X23	Y23	Z23	X24	Y24	Z24	X25	Y25	Z25	X26	Y26	Z26	X27	Y27	Z27
118	1.17000000	-1013.319031	1364.247070	317.131500	-1006.456055	1343.123901	-99.713608	-1114.654053	1428.048950	105.144196	-964.257263	1308.316162	114.395477	-1142.992188	1052.166382	391.385315	-1162.412964	1037.033203	-163.892944	-1096.960632	805.889404	363.412506	-1141.088379	797.162079	-124.640633	-1064.235474	932.064697	304.552734	-1053.609009	918.631348	-44.423874	-1237.996338	966.122620	187.195786	-1238.297607	972.127563	79.381432	-1238.146973	969.125092	133.288609	-1213.006836	1181.152344	111.182846	-889.073669	1112.407593	114.628815	-984.689453	649.369141	358.437012	-944.601501	516.891846	321.912201	-1034.827881	317.050659	354.724670	-1088.417725	113.243553	285.014771	-1124.208374	123.937904	224.936768	-964.904297	61.810581	266.591766	-1157.858765	601.916870	-62.632881	-1132.736694	471.914825	6.700143	-1180.920898	281.760834	-29.086637	-1197.069824	70.160034	45.450241	-1241.652466	57.142483	98.222321	-1054.576050	40.083809	56.698376
119	1.18000000	-1008.779724	1363.227417	317.659302	-1001.033386	1342.714844	-99.200546	-1109.691528	1427.466431	105.528877	-959.396667	1307.598877	114.975510	-1139.080444	1051.217529	391.128235	-1157.224365	1037.002563	-164.484985	-1093.825378	804.811401	363.225403	-1135.760864	796.888519	-125.697590	-1060.679565	931.070007	304.545685	-1048.561768	918.256104	-44.432377	-1233.935791	965.400879	186.361267	-1233.713745	971.639343	78.607788	-1233.824768	968.520111	132.484528	-1208.357666	1180.685425	110.840492	-884.496765	1111.542480	115.264740	-979.196289	649.627441	358.152771	-937.614014	517.618469	321.152161	-1021.147461	314.631226	354.043182	-1066.403809	108.566963	284.596619	-1102.237061	117.739639	224.150665	-940.830261	62.030823	267.064514	-1152.073242	601.375183	-63.578796	-1130.781006	471.844086	6.564590	-1179.988892	281.738281	-29.119482	-1197.026855	70.294884	45.460758	-1241.594971	57.233479	98.328659	-1054.571655	40.348614	56.476822
120	1.19000000	-1004.212646	1362.174927	318.269440	-995.599243	1342.298828	-98.593277	-1104.708374	1426.837280	106.020905	-954.508118	1306.829224	115.642036	-1135.112061	1050.220337	390.906677	-1151.954346	1036.947388	-164.988571	-1090.674316	803.670593	363.048935	-1129.633667	796.846375	-126.932816	-1057.113037	930.002930	304.603760	-1043.469116	917.852844	-44.410412	-1229.843872	964.573242	185.546890	-1229.063965	971.062500	77.860367	-1229.453918	967.817871	131.703629	-1203.683472	1180.174316	110.598213	-879.897827	1110.631104	115.973572	-973.750305	649.733887	357.820862	-930.907288	518.132019	320.314880	-1007.469360	312.226562	353.504669	-1044.154785	104.159409	284.567322	-1079.952026	111.711357	223.753647	-916.723816	62.686153	268.206604	-1146.162231	600.765930	-64.405434	-1128.800537	471.784607	6.440008	-1178.974976	281.718536	-29.170572	-1197.023926	70.422798	45.489517	-1241.538086	57.328316	98.437935	-1054.565186	40.587261	56.260235
121	1.20000000	-999.620911	1361.092773	318.965332	-990.149170	1341.869873	-97.890312	-1099.706665	1426.158081	106.618767	-949.595154	1306.005981	116.395592	-1131.093750	1049.180908	390.730103	-1146.601685	1036.858398	-165.408463	-1087.497070	802.477631	362.878616	-1123.086182	796.922394	-128.205154	-1053.520020	928.870483	304.718323	-1038.312866	917.425171	-44.351833	-1225.707520	963.637024	184.760620	-1224.343994	970.397461	77.149773	-1225.025757	967.017242	130.955196	-1198.982056	1179.618896	110.461143	-875.264099	1109.681396	116.750839	-968.367615	649.664978	357.440399	-924.473206	518.421997	319.395447	-993.817627	309.854584	353.120789	-1021.742310	100.072662	284.931641	-1057.426514	105.901192	223.766663	-892.641846	63.821281	269.903961	-1140.271362	600.140015	-65.092293	-1126.805176	471.734558	6.337729	-1177.880737	281.713898	-29.232416	-1197.042725	70.551025	45.533604	-1241.477905	57.450676	98.534790	-1054.547729	40.784267	56.061729
122	1.21000000	-995.008789	1359.980225	319.752411	-984.681519	1341.418213	-97.091560	-1094.689697	1425.428833	107.318558	-944.661743	1305.129883	117.239243	-1127.036011	1048.101807	390.608551	-1141.162354	1036.728516	-165.751541	-1084.283752	801.241394	362.713501	-1116.444946	797.019409	-129.393017	-1049.885254	927.677368	304.883667	-1033.077637	916.975891	-44.246540	-1221.508911	962.595093	184.010727	-1219.550293	969.651123	76.487320	-1220.529602	966.123108	130.249023	-1194.251831	1179.015625	110.434746	-870.586487	1108.700806	117.593796	-963.070679	649.389648	357.014832	-918.300598	518.479797	318.392609	-980.221741	307.537048	352.903290	-999.251282	96.353737	285.687988	-1034.749146	100.366699	224.194183	-868.664185	65.461716	272.045959	-1134.548584	599.557556	-65.636139	-1124.793945	471.689880	6.270785	-1176.715698	281.733429	-29.289782	-1197.064575	70.686867	45.588520	-1241.411743	57.615417	98.613609	-1054.514160	40.942471	55.882866
123	1.22000000	-990.380676	1358.833862	320.635651	-979.196228	1340.933105	-96.197578	-1089.659912	1424.653198	108.116806	-939.711792	1304.203369	118.175140	-1122.950928	1046.979736	390.550995	-1135.631592	1036.551758	-166.024460	-1081.025085	799.967957	362.556976	-1109.919189	797.070038	-130.416214	-1046.193848	926.425598	305.097595	-1027.754150	916.507568	-44.083260	-1217.227661	961.455505	183.307007	-1214.680664	968.831665	75.886124	-1215.954163	965.143585	129.596565	-1189.489014	1178.357300	110.517998	-865.858948	1107.695557	118.505051	-957.885010	648.871216	356.552643	-912.376404	518.298645	317.311279	-966.717590	305.300110	352.859650	-976.782043	93.044044	286.825775	-1012.025330	95.168617	225.026917	-844.898682	67.623184	274.551819	-1129.126709	599.064880	-66.039368	-1122.763306	471.646179	6.252997	-1175.498291	281.782806	-29.320856	-1197.075439	70.835938	45.651745	-1241.338989	57.829216	98.677284	-1054.466064	41.072136	55.722881
124	1.23000000	-985.741211	1357.649414	321.619263	-973.691895	1340.405762	-95.207611	-1084.618896	1423.837036	109.011528	-934.749512	1303.231812	119.203491	-1118.850220	1045.807861	390.564423	-1130.006958	1036.322510	-166.229767	-1077.711853	798.660492	362.414932	-1103.591370	797.036102	-131.237644	-1042.428711	925.116089	305.360565	-1022.340210	916.023621	-43.853153	-1212.844604	960.226196	182.662460	-1209.734619	967.942017	75.360573	-1211.289612	964.084106	129.011517	-1184.685913	1177.637939	110.700531	-861.075623	1106.673340	119.494270	-952.836609	648.069763	356.064667	-906.684570	517.873169	316.164520	-953.347839	303.175140	352.991241	-954.450867	90.178528	288.322815	-989.381042	90.365112	226.244751	-821.478577	70.305397	277.361176	-1124.084229	598.676514	-66.305389	-1120.711548	471.604462	6.296418	-1174.251099	281.861084	-29.300680	-1197.068115	71.001236	45.722946	-1241.259644	58.092453	98.734070	-1054.412842	41.181248	55.587845
